<mxfile host="a53fe1b5-bf70-400b-95da-117b5c806f98" modified="2021-01-26T12:55:20.664Z" agent="5.0 (Windows NT 10.0; Win64; x64) AppleWebKit/537.36 (KHTML, like Gecko) Code/1.52.1 Chrome/83.0.4103.122 Electron/9.3.5 Safari/537.36" etag="ZcgzFE8MMMCtdXj3KWpK" version="13.10.0" type="embed"><diagram id="fGqwOjzYdY2nMfM5Dxpe" name="Page-1"><mxGraphModel dx="1204" dy="899" grid="1" gridSize="10" guides="1" tooltips="1" connect="1" arrows="1" fold="1" page="1" pageScale="1" pageWidth="1169" pageHeight="827" math="0" shadow="0"><root><mxCell id="0" /><mxCell id="1" parent="0" /><mxCell id="149" style="edgeStyle=none;rounded=0;orthogonalLoop=1;jettySize=auto;html=1;exitX=1;exitY=0.5;exitDx=0;exitDy=0;entryX=0;entryY=0.529;entryDx=0;entryDy=0;entryPerimeter=0;endArrow=none;endFill=0;" parent="1" source="121" target="30" edge="1"><mxGeometry relative="1" as="geometry" /></mxCell><mxCell id="121" value="DC-1" style="aspect=fixed;perimeter=ellipsePerimeter;html=1;align=center;shadow=0;dashed=0;spacingTop=0;image;image=img/lib/active_directory/internet_cloud.svg;labelPosition=center;verticalLabelPosition=middle;verticalAlign=middle;spacingLeft=0;spacing=0;spacingRight=-9;labelBackgroundColor=none;fontColor=#4D4D4D;fontStyle=1;fontFamily=Verdana;" parent="1" vertex="1"><mxGeometry x="30" y="450" width="545.82" height="343.87" as="geometry" /></mxCell><mxCell id="107" style="edgeStyle=none;rounded=0;orthogonalLoop=1;jettySize=auto;html=1;exitX=1;exitY=0.25;exitDx=0;exitDy=0;endArrow=none;endFill=0;entryX=0.25;entryY=0;entryDx=0;entryDy=0;strokeColor=#ff0000;" parent="1" source="5" target="105" edge="1"><mxGeometry relative="1" as="geometry" /></mxCell><mxCell id="158" style="rounded=0;orthogonalLoop=1;jettySize=auto;html=1;exitX=1;exitY=0.75;exitDx=0;exitDy=0;entryX=0;entryY=0.25;entryDx=0;entryDy=0;startArrow=none;startFill=0;endArrow=none;endFill=0;strokeColor=#ff0000;" edge="1" parent="1" source="5" target="105"><mxGeometry relative="1" as="geometry" /></mxCell><mxCell id="5" value="Backbone-1" style="aspect=fixed;perimeter=ellipsePerimeter;html=1;align=center;shadow=0;dashed=0;spacingTop=0;image;image=img/lib/active_directory/internet_cloud.svg;labelPosition=center;verticalLabelPosition=middle;verticalAlign=middle;spacingLeft=0;spacing=0;spacingRight=-9;labelBackgroundColor=none;fontColor=#4D4D4D;fontStyle=1;fontFamily=Verdana;" parent="1" vertex="1"><mxGeometry x="150" y="210" width="282.22" height="177.8" as="geometry" /></mxCell><mxCell id="6" value="Backbone-2" style="aspect=fixed;perimeter=ellipsePerimeter;html=1;align=center;shadow=0;dashed=0;spacingTop=0;image;image=img/lib/active_directory/internet_cloud.svg;labelPosition=center;verticalLabelPosition=middle;verticalAlign=middle;spacingLeft=0;spacing=0;spacingRight=-9;labelBackgroundColor=none;fontColor=#4D4D4D;fontStyle=1;fontFamily=Verdana;" parent="1" vertex="1"><mxGeometry x="749.91" y="210" width="266" height="167.58" as="geometry" /></mxCell><mxCell id="8" value="Campus-2" style="aspect=fixed;perimeter=ellipsePerimeter;html=1;align=center;shadow=0;dashed=0;spacingTop=0;image;image=img/lib/active_directory/internet_cloud.svg;labelPosition=center;verticalLabelPosition=middle;verticalAlign=middle;spacingLeft=0;spacing=0;spacingRight=-9;labelBackgroundColor=none;fontColor=#4D4D4D;fontStyle=1;fontFamily=Verdana;" parent="1" vertex="1"><mxGeometry x="883.6" y="34.8" width="262.22" height="165.2" as="geometry" /></mxCell><mxCell id="9" value="Campus-1" style="aspect=fixed;perimeter=ellipsePerimeter;html=1;align=center;shadow=0;dashed=0;spacingTop=0;image;image=img/lib/active_directory/internet_cloud.svg;labelPosition=center;verticalLabelPosition=middle;verticalAlign=middle;spacingLeft=0;spacing=0;spacingRight=-9;labelBackgroundColor=none;fontColor=#4D4D4D;fontStyle=1;fontFamily=Verdana;" parent="1" vertex="1"><mxGeometry x="40" y="20" width="269.84" height="170" as="geometry" /></mxCell><mxCell id="46" value="" style="endArrow=none;html=1;" parent="1" source="9" target="5" edge="1"><mxGeometry width="50" height="50" relative="1" as="geometry"><mxPoint x="270" y="210" as="sourcePoint" /><mxPoint x="320" y="160" as="targetPoint" /></mxGeometry></mxCell><mxCell id="47" value="" style="endArrow=none;html=1;" parent="1" source="6" target="8" edge="1"><mxGeometry width="50" height="50" relative="1" as="geometry"><mxPoint x="860" y="240" as="sourcePoint" /><mxPoint x="910" y="190" as="targetPoint" /></mxGeometry></mxCell><mxCell id="62" value="iperf-1" style="verticalLabelPosition=bottom;html=1;verticalAlign=top;align=center;strokeColor=none;fillColor=#ff0000;shape=mxgraph.azure.server;" parent="1" vertex="1"><mxGeometry x="87" y="242.8" width="50" height="15" as="geometry" /></mxCell><mxCell id="66" style="edgeStyle=orthogonalEdgeStyle;rounded=0;orthogonalLoop=1;jettySize=auto;html=1;exitX=0.5;exitY=1;exitDx=0;exitDy=0;entryX=0.5;entryY=0;entryDx=0;entryDy=0;entryPerimeter=0;endArrow=none;endFill=0;" parent="1" source="64" target="62" edge="1"><mxGeometry relative="1" as="geometry" /></mxCell><mxCell id="64" value="Campus1-SW1" style="aspect=fixed;perimeter=ellipsePerimeter;html=1;align=left;fontSize=12;verticalAlign=middle;shadow=0;dashed=0;image;image=img/lib/cumulus/switch.svg;labelBackgroundColor=none;labelPosition=right;verticalLabelPosition=middle;" parent="1" vertex="1"><mxGeometry x="64" y="128" width="96" height="20" as="geometry" /></mxCell><mxCell id="119" value="" style="group" parent="1" vertex="1" connectable="0"><mxGeometry x="610" y="440" width="545.8200000000002" height="343.87" as="geometry" /></mxCell><mxCell id="30" value="DC-2" style="aspect=fixed;perimeter=ellipsePerimeter;html=1;align=center;shadow=0;dashed=0;spacingTop=0;image;image=img/lib/active_directory/internet_cloud.svg;labelPosition=center;verticalLabelPosition=middle;verticalAlign=middle;spacingLeft=0;spacing=0;spacingRight=-9;labelBackgroundColor=none;fontColor=#4D4D4D;fontStyle=1;fontFamily=Verdana;" parent="119" vertex="1"><mxGeometry width="545.82" height="343.87" as="geometry" /></mxCell><mxCell id="74" value="DC2-SW2" style="aspect=fixed;perimeter=ellipsePerimeter;html=1;align=left;fontSize=12;verticalAlign=middle;shadow=0;dashed=0;image;image=img/lib/cumulus/switch.svg;labelBackgroundColor=none;labelPosition=right;verticalLabelPosition=middle;" parent="119" vertex="1"><mxGeometry x="270" y="76" width="96" height="20" as="geometry" /></mxCell><mxCell id="75" value="DC2-SW1" style="aspect=fixed;perimeter=ellipsePerimeter;html=1;align=right;fontSize=12;verticalAlign=middle;shadow=0;dashed=0;image;image=img/lib/cumulus/switch.svg;labelBackgroundColor=none;labelPosition=left;verticalLabelPosition=middle;" parent="119" vertex="1"><mxGeometry x="160" y="76" width="96" height="20" as="geometry" /></mxCell><mxCell id="111" style="edgeStyle=none;rounded=0;orthogonalLoop=1;jettySize=auto;html=1;entryX=0.808;entryY=1.1;entryDx=0;entryDy=0;entryPerimeter=0;endArrow=none;endFill=0;exitX=0.5;exitY=0;exitDx=0;exitDy=0;exitPerimeter=0;" parent="119" source="116" target="75" edge="1"><mxGeometry relative="1" as="geometry"><mxPoint x="393" y="186" as="sourcePoint" /></mxGeometry></mxCell><mxCell id="114" value="e1/5" style="edgeLabel;html=1;align=center;verticalAlign=middle;resizable=0;points=[];" parent="111" vertex="1" connectable="0"><mxGeometry x="0.9222" y="2" relative="1" as="geometry"><mxPoint as="offset" /></mxGeometry></mxCell><mxCell id="117" value="3" style="edgeLabel;html=1;align=center;verticalAlign=middle;resizable=0;points=[];" parent="111" vertex="1" connectable="0"><mxGeometry x="-0.8273" y="2" relative="1" as="geometry"><mxPoint y="-2" as="offset" /></mxGeometry></mxCell><mxCell id="112" style="edgeStyle=none;rounded=0;orthogonalLoop=1;jettySize=auto;html=1;exitX=0.5;exitY=0;exitDx=0;exitDy=0;exitPerimeter=0;entryX=0.5;entryY=1;entryDx=0;entryDy=0;endArrow=none;endFill=0;" parent="119" source="88" target="74" edge="1"><mxGeometry relative="1" as="geometry" /></mxCell><mxCell id="113" value="e1/5" style="edgeLabel;html=1;align=center;verticalAlign=middle;resizable=0;points=[];" parent="112" vertex="1" connectable="0"><mxGeometry x="0.8467" y="-1" relative="1" as="geometry"><mxPoint as="offset" /></mxGeometry></mxCell><mxCell id="115" value="3" style="edgeLabel;html=1;align=center;verticalAlign=middle;resizable=0;points=[];" parent="112" vertex="1" connectable="0"><mxGeometry x="-0.8321" relative="1" as="geometry"><mxPoint as="offset" /></mxGeometry></mxCell><mxCell id="88" value="DC2-FW2" style="fillColor=#28A8E0;verticalLabelPosition=bottom;html=1;strokeColor=#ffffff;verticalAlign=top;align=center;points=[[0.145,0.145,0],[0.5,0,0],[0.855,0.145,0],[1,0.5,0],[0.855,0.855,0],[0.5,1,0],[0.145,0.855,0],[0,0.5,0]];pointerEvents=1;shape=mxgraph.cisco_safe.compositeIcon;bgIcon=ellipse;resIcon=mxgraph.cisco_safe.capability.firewall;shadow=0;dashed=0;fontFamily=Verdana;fontColor=#4D4D4D;" parent="119" vertex="1"><mxGeometry x="383.05999999999995" y="176" width="70" height="70" as="geometry" /></mxCell><mxCell id="116" value="DC2-FW1" style="fillColor=#28A8E0;verticalLabelPosition=bottom;html=1;strokeColor=#ffffff;verticalAlign=top;align=center;points=[[0.145,0.145,0],[0.5,0,0],[0.855,0.145,0],[1,0.5,0],[0.855,0.855,0],[0.5,1,0],[0.145,0.855,0],[0,0.5,0]];pointerEvents=1;shape=mxgraph.cisco_safe.compositeIcon;bgIcon=ellipse;resIcon=mxgraph.cisco_safe.capability.firewall;shadow=0;dashed=0;fontFamily=Verdana;fontColor=#4D4D4D;" parent="119" vertex="1"><mxGeometry x="300" y="176" width="70" height="70" as="geometry" /></mxCell><mxCell id="106" value="" style="group" parent="119" vertex="1" connectable="0"><mxGeometry x="-160" y="-170" width="309.52" height="195" as="geometry" /></mxCell><mxCell id="105" value="BB-new" style="aspect=fixed;perimeter=ellipsePerimeter;html=1;align=center;shadow=0;dashed=0;spacingTop=0;image;image=img/lib/active_directory/internet_cloud.svg;labelPosition=center;verticalLabelPosition=middle;verticalAlign=middle;spacingLeft=0;spacing=0;spacingRight=-9;labelBackgroundColor=none;fontColor=#4D4D4D;fontStyle=1;fontFamily=Verdana;" parent="106" vertex="1"><mxGeometry width="309.52" height="195" as="geometry" /></mxCell><object label="bbnew-4" hostname="heisl1" id="72"><mxCell style="aspect=fixed;perimeter=ellipsePerimeter;html=1;align=center;fontSize=12;verticalAlign=top;shadow=0;dashed=0;image;image=img/lib/cumulus/switch.svg;labelBackgroundColor=none;labelPosition=center;verticalLabelPosition=bottom;" parent="106" vertex="1"><mxGeometry x="166.76" y="121" width="96" height="20" as="geometry" /></mxCell></object><mxCell id="76" value="bbnew-2" style="aspect=fixed;perimeter=ellipsePerimeter;html=1;align=center;fontSize=12;verticalAlign=bottom;shadow=0;dashed=0;image;image=img/lib/cumulus/switch.svg;labelBackgroundColor=none;labelPosition=center;verticalLabelPosition=top;" parent="106" vertex="1"><mxGeometry x="166.75999999999988" y="51" width="96" height="20" as="geometry" /></mxCell><object label="bbnew-3" hostname="heisl1" id="100"><mxCell style="aspect=fixed;perimeter=ellipsePerimeter;html=1;align=center;fontSize=12;verticalAlign=top;shadow=0;dashed=0;image;image=img/lib/cumulus/switch.svg;labelBackgroundColor=none;labelPosition=center;verticalLabelPosition=bottom;fillOpacity=100;" parent="106" vertex="1"><mxGeometry x="40.75999999999999" y="121" width="96" height="20" as="geometry" /></mxCell></object><mxCell id="101" value="bbnew-1" style="aspect=fixed;perimeter=ellipsePerimeter;html=1;align=center;fontSize=12;verticalAlign=bottom;shadow=0;dashed=0;image;image=img/lib/cumulus/switch.svg;labelBackgroundColor=none;labelPosition=center;verticalLabelPosition=top;imageBackground=#ff0000;fillOpacity=50;" parent="106" vertex="1"><mxGeometry x="40.75999999999988" y="51" width="96" height="20" as="geometry" /></mxCell><mxCell id="80" style="edgeStyle=none;rounded=0;orthogonalLoop=1;jettySize=auto;html=1;exitX=0.5;exitY=0;exitDx=0;exitDy=0;entryX=0.5;entryY=1;entryDx=0;entryDy=0;endArrow=none;endFill=0;" parent="106" source="72" target="76" edge="1"><mxGeometry relative="1" as="geometry"><Array as="points" /></mxGeometry></mxCell><mxCell id="103" style="edgeStyle=none;rounded=0;orthogonalLoop=1;jettySize=auto;html=1;exitX=1;exitY=0.5;exitDx=0;exitDy=0;entryX=0;entryY=0.5;entryDx=0;entryDy=0;endArrow=none;endFill=0;" parent="106" source="100" target="72" edge="1"><mxGeometry relative="1" as="geometry" /></mxCell><mxCell id="102" style="edgeStyle=none;rounded=0;orthogonalLoop=1;jettySize=auto;html=1;exitX=1;exitY=0.5;exitDx=0;exitDy=0;entryX=0;entryY=0.5;entryDx=0;entryDy=0;endArrow=none;endFill=0;" parent="106" source="101" target="76" edge="1"><mxGeometry relative="1" as="geometry" /></mxCell><mxCell id="99" style="edgeStyle=none;rounded=0;orthogonalLoop=1;jettySize=auto;html=1;exitX=0.5;exitY=0;exitDx=0;exitDy=0;entryX=0.5;entryY=1;entryDx=0;entryDy=0;endArrow=none;endFill=0;" parent="106" source="100" target="101" edge="1"><mxGeometry relative="1" as="geometry"><Array as="points" /></mxGeometry></mxCell><mxCell id="78" style="edgeStyle=none;rounded=0;orthogonalLoop=1;jettySize=auto;html=1;exitX=1;exitY=1;exitDx=0;exitDy=0;entryX=1;entryY=0;entryDx=0;entryDy=0;endArrow=none;endFill=0;" parent="119" source="72" target="75" edge="1"><mxGeometry relative="1" as="geometry" /></mxCell><mxCell id="93" value="hu6/39" style="edgeLabel;html=1;align=center;verticalAlign=middle;resizable=0;points=[];" parent="78" vertex="1" connectable="0"><mxGeometry x="-0.8127" y="-1" relative="1" as="geometry"><mxPoint x="19.19" as="offset" /></mxGeometry></mxCell><mxCell id="95" value="e1/1" style="edgeLabel;html=1;align=center;verticalAlign=middle;resizable=0;points=[];" parent="78" vertex="1" connectable="0"><mxGeometry x="0.7626" y="-1" relative="1" as="geometry"><mxPoint x="12" y="-7" as="offset" /></mxGeometry></mxCell><mxCell id="79" style="edgeStyle=none;rounded=0;orthogonalLoop=1;jettySize=auto;html=1;entryX=1;entryY=0;entryDx=0;entryDy=0;endArrow=none;endFill=0;exitX=0.75;exitY=1;exitDx=0;exitDy=0;" parent="119" source="76" target="74" edge="1"><mxGeometry relative="1" as="geometry"><mxPoint x="79" y="-102" as="sourcePoint" /></mxGeometry></mxCell><mxCell id="91" value="hu6/39" style="edgeLabel;html=1;align=center;verticalAlign=middle;resizable=0;points=[];" parent="79" vertex="1" connectable="0"><mxGeometry x="-0.765" relative="1" as="geometry"><mxPoint x="18.63" as="offset" /></mxGeometry></mxCell><mxCell id="92" value="e1/1" style="edgeLabel;html=1;align=center;verticalAlign=middle;resizable=0;points=[];" parent="79" vertex="1" connectable="0"><mxGeometry x="0.7745" relative="1" as="geometry"><mxPoint x="10.63" as="offset" /></mxGeometry></mxCell><mxCell id="139" style="edgeStyle=none;rounded=0;orthogonalLoop=1;jettySize=auto;html=1;exitX=0.75;exitY=0;exitDx=0;exitDy=0;entryX=0;entryY=1;entryDx=0;entryDy=0;endArrow=none;endFill=0;" parent="1" source="122" target="100" edge="1"><mxGeometry relative="1" as="geometry" /></mxCell><mxCell id="141" value="e1/1" style="edgeLabel;html=1;align=center;verticalAlign=middle;resizable=0;points=[];" parent="139" vertex="1" connectable="0"><mxGeometry x="-0.79" y="1" relative="1" as="geometry"><mxPoint as="offset" /></mxGeometry></mxCell><mxCell id="144" value="hu6/39" style="edgeLabel;html=1;align=center;verticalAlign=middle;resizable=0;points=[];" parent="139" vertex="1" connectable="0"><mxGeometry x="0.7632" relative="1" as="geometry"><mxPoint as="offset" /></mxGeometry></mxCell><object label="DC1-SW2" IP="192.168.1.1" id="122"><mxCell style="aspect=fixed;perimeter=ellipsePerimeter;html=1;align=left;fontSize=12;verticalAlign=middle;shadow=0;dashed=0;image;image=img/lib/cumulus/switch.svg;labelBackgroundColor=none;labelPosition=right;verticalLabelPosition=middle;comic=0;sketch=0;flipH=0;fillOpacity=100;" parent="1" vertex="1"><mxGeometry x="300" y="526" width="90" height="20" as="geometry" /></mxCell></object><mxCell id="140" style="edgeStyle=none;rounded=0;orthogonalLoop=1;jettySize=auto;html=1;exitX=0.75;exitY=0;exitDx=0;exitDy=0;entryX=0.25;entryY=1;entryDx=0;entryDy=0;endArrow=none;endFill=0;strokeColor=#ff0000;" parent="1" source="123" target="101" edge="1"><mxGeometry relative="1" as="geometry" /></mxCell><mxCell id="142" value="e1/1" style="edgeLabel;html=1;align=center;verticalAlign=middle;resizable=0;points=[];" parent="140" vertex="1" connectable="0"><mxGeometry x="-0.8029" y="-2" relative="1" as="geometry"><mxPoint as="offset" /></mxGeometry></mxCell><mxCell id="143" value="hu6/39" style="edgeLabel;html=1;align=center;verticalAlign=middle;resizable=0;points=[];" parent="140" vertex="1" connectable="0"><mxGeometry x="0.8858" relative="1" as="geometry"><mxPoint x="1" as="offset" /></mxGeometry></mxCell><mxCell id="123" value="DC1-SW1" style="aspect=fixed;perimeter=ellipsePerimeter;html=1;align=right;fontSize=12;verticalAlign=middle;shadow=0;dashed=0;image;image=img/lib/cumulus/switch.svg;labelBackgroundColor=none;labelPosition=left;verticalLabelPosition=middle;imageBackground=#ff0000;fillOpacity=50;" parent="1" vertex="1"><mxGeometry x="190" y="526" width="96" height="20" as="geometry" /></mxCell><mxCell id="125" style="edgeStyle=none;rounded=0;orthogonalLoop=1;jettySize=auto;html=1;entryX=0.808;entryY=1.1;entryDx=0;entryDy=0;entryPerimeter=0;endArrow=none;endFill=0;exitX=0.5;exitY=0;exitDx=0;exitDy=0;exitPerimeter=0;" parent="1" source="134" target="123" edge="1"><mxGeometry x="30" y="450" as="geometry"><mxPoint x="423" y="636" as="sourcePoint" /></mxGeometry></mxCell><mxCell id="126" value="e1/5" style="edgeLabel;html=1;align=center;verticalAlign=middle;resizable=0;points=[];" parent="125" vertex="1" connectable="0"><mxGeometry x="0.9222" y="2" relative="1" as="geometry"><mxPoint as="offset" /></mxGeometry></mxCell><mxCell id="127" value="3" style="edgeLabel;html=1;align=center;verticalAlign=middle;resizable=0;points=[];" parent="125" vertex="1" connectable="0"><mxGeometry x="-0.8273" y="2" relative="1" as="geometry"><mxPoint y="-2" as="offset" /></mxGeometry></mxCell><mxCell id="128" style="edgeStyle=none;rounded=0;orthogonalLoop=1;jettySize=auto;html=1;exitX=0.5;exitY=0;exitDx=0;exitDy=0;exitPerimeter=0;entryX=0.5;entryY=1;entryDx=0;entryDy=0;endArrow=none;endFill=0;" parent="1" source="131" target="122" edge="1"><mxGeometry x="30" y="450" as="geometry" /></mxCell><mxCell id="129" value="e1/5" style="edgeLabel;html=1;align=center;verticalAlign=middle;resizable=0;points=[];" parent="128" vertex="1" connectable="0"><mxGeometry x="0.8467" y="-1" relative="1" as="geometry"><mxPoint as="offset" /></mxGeometry></mxCell><mxCell id="130" value="3" style="edgeLabel;html=1;align=center;verticalAlign=middle;resizable=0;points=[];" parent="128" vertex="1" connectable="0"><mxGeometry x="-0.8321" relative="1" as="geometry"><mxPoint as="offset" /></mxGeometry></mxCell><mxCell id="131" value="DC1-FW2" style="fillColor=#28A8E0;verticalLabelPosition=bottom;html=1;strokeColor=#ffffff;verticalAlign=top;align=center;points=[[0.145,0.145,0],[0.5,0,0],[0.855,0.145,0],[1,0.5,0],[0.855,0.855,0],[0.5,1,0],[0.145,0.855,0],[0,0.5,0]];pointerEvents=1;shape=mxgraph.cisco_safe.compositeIcon;bgIcon=ellipse;resIcon=mxgraph.cisco_safe.capability.firewall;shadow=0;dashed=0;fontFamily=Verdana;fontColor=#4D4D4D;" parent="1" vertex="1"><mxGeometry x="159.99999999999994" y="620" width="70" height="70" as="geometry" /></mxCell><mxCell id="134" value="DC1-FW1" style="fillColor=#28A8E0;verticalLabelPosition=bottom;html=1;strokeColor=#ffffff;verticalAlign=top;align=center;points=[[0.145,0.145,0],[0.5,0,0],[0.855,0.145,0],[1,0.5,0],[0.855,0.855,0],[0.5,1,0],[0.145,0.855,0],[0,0.5,0]];pointerEvents=1;shape=mxgraph.cisco_safe.compositeIcon;bgIcon=ellipse;resIcon=mxgraph.cisco_safe.capability.firewall;shadow=0;dashed=0;fontFamily=Verdana;fontColor=#4D4D4D;" parent="1" vertex="1"><mxGeometry x="77" y="620" width="70" height="70" as="geometry" /></mxCell><mxCell id="153" style="edgeStyle=none;rounded=0;orthogonalLoop=1;jettySize=auto;html=1;exitX=0.75;exitY=0;exitDx=0;exitDy=0;endArrow=none;endFill=0;entryX=0;entryY=0.25;entryDx=0;entryDy=0;" parent="1" source="105" target="6" edge="1"><mxGeometry relative="1" as="geometry" /></mxCell><mxCell id="83" value="TBD-IPERF" style="aspect=fixed;perimeter=ellipsePerimeter;html=1;align=right;fontSize=12;verticalAlign=middle;shadow=0;dashed=0;image;image=img/lib/cumulus/switch.svg;labelBackgroundColor=none;labelPosition=left;verticalLabelPosition=middle;" parent="1" vertex="1"><mxGeometry x="370.0000000000001" y="640" width="96" height="20" as="geometry" /></mxCell><mxCell id="110" style="edgeStyle=none;rounded=0;orthogonalLoop=1;jettySize=auto;html=1;entryX=0.5;entryY=0;entryDx=0;entryDy=0;entryPerimeter=0;endArrow=none;endFill=0;" parent="1" source="83" target="104" edge="1"><mxGeometry relative="1" as="geometry" /></mxCell><mxCell id="104" value="iperf-3" style="verticalLabelPosition=bottom;html=1;verticalAlign=top;align=center;strokeColor=none;fillColor=#ff0000;shape=mxgraph.azure.server;" parent="1" vertex="1"><mxGeometry x="340" y="710" width="50" height="15" as="geometry" /></mxCell><mxCell id="157" style="edgeStyle=none;rounded=0;orthogonalLoop=1;jettySize=auto;html=1;exitX=0.5;exitY=1;exitDx=0;exitDy=0;endArrow=none;endFill=0;" parent="1" source="155" target="156" edge="1"><mxGeometry relative="1" as="geometry" /></mxCell><mxCell id="155" value="Campus2-SW1" style="aspect=fixed;perimeter=ellipsePerimeter;html=1;align=right;fontSize=12;verticalAlign=middle;shadow=0;dashed=0;image;image=img/lib/cumulus/switch.svg;labelBackgroundColor=none;labelPosition=left;verticalLabelPosition=middle;" parent="1" vertex="1"><mxGeometry x="1017" y="128" width="96" height="20" as="geometry" /></mxCell><mxCell id="156" value="iperf-2" style="verticalLabelPosition=bottom;html=1;verticalAlign=top;align=center;strokeColor=none;fillColor=#00BEF2;shape=mxgraph.azure.server;" parent="1" vertex="1"><mxGeometry x="1039" y="252.69" width="50" height="15" as="geometry" /></mxCell></root></mxGraphModel></diagram></mxfile>
